<svg xmlns="http://www.w3.org/2000/svg" xmlns:xlink="http://www.w3.org/1999/xlink" width="500" zoomAndPan="magnify" viewBox="0 0 375 374.999991" height="500" preserveAspectRatio="xMidYMid meet" version="1.0"><defs><clipPath id="6178975eaa"><path d="M 119 132 L 256 132 L 256 324.625 L 119 324.625 Z M 119 132 " clip-rule="nonzero"/></clipPath><clipPath id="487b881e3b"><path d="M 142 50.125 L 232 50.125 L 232 101 L 142 101 Z M 142 50.125 " clip-rule="nonzero"/></clipPath><clipPath id="9f1bbe69ff"><path d="M 113.890625 79 L 260.890625 79 L 260.890625 150 L 113.890625 150 Z M 113.890625 79 " clip-rule="nonzero"/></clipPath></defs><g clip-path="url(#6178975eaa)"><path fill="#ffffff" d="M 249.300781 132.882812 C 248.242188 132.449219 247.050781 132.558594 246.082031 133.179688 C 239.621094 137.316406 233.71875 142.765625 228.542969 149.378906 C 221.105469 158.828125 215.261719 170.640625 211.644531 183.523438 C 210.742188 186.703125 209.957031 190.050781 209.308594 193.472656 C 207.914062 200.875 207.207031 208.523438 207.207031 216.210938 C 207.207031 226.015625 208.355469 235.640625 210.59375 244.867188 C 203.210938 250.417969 195.417969 253.234375 187.398438 253.234375 C 179.382812 253.234375 171.585938 250.417969 164.195312 244.867188 C 166.433594 235.640625 167.578125 226.019531 167.578125 216.210938 C 167.578125 208.253906 166.828125 200.367188 165.34375 192.78125 C 164.738281 189.636719 163.996094 186.519531 163.144531 183.535156 C 159.53125 170.664062 153.6875 158.851562 146.25 149.382812 C 141.050781 142.746094 135.152344 137.296875 128.710938 133.191406 C 127.746094 132.574219 126.554688 132.46875 125.496094 132.902344 C 124.441406 133.335938 123.640625 134.261719 123.339844 135.402344 C 120.675781 145.386719 119.324219 155.871094 119.324219 166.566406 C 119.324219 188.96875 124.492188 203.464844 128.378906 212.421875 C 135.050781 227.8125 144.5625 240.09375 155.988281 248.117188 C 152.582031 263.34375 147.214844 277.226562 140.394531 288.40625 C 139.636719 289.644531 139.636719 291.226562 140.394531 292.464844 C 153.046875 313.203125 169.742188 324.625 187.402344 324.625 C 205.054688 324.625 221.742188 313.203125 234.394531 292.464844 C 235.152344 291.226562 235.152344 289.640625 234.394531 288.402344 C 227.578125 277.253906 222.210938 263.371094 218.800781 248.121094 C 230.339844 240.042969 239.835938 227.800781 246.359375 212.546875 C 249.117188 206.121094 251.28125 199.28125 252.789062 192.21875 C 252.832031 192.015625 252.859375 191.808594 252.871094 191.605469 C 253.453125 189.113281 255.476562 179.523438 255.476562 166.566406 C 255.476562 155.863281 254.125 145.375 251.464844 135.390625 C 251.15625 134.246094 250.355469 133.316406 249.300781 132.882812 Z M 134.976562 209.304688 C 131.367188 200.984375 126.566406 187.503906 126.566406 166.5625 C 126.566406 158.375 127.410156 150.320312 129.078125 142.558594 C 133.234375 145.769531 137.109375 149.660156 140.644531 154.171875 C 147.476562 162.867188 152.851562 173.753906 156.199219 185.675781 C 156.996094 188.457031 157.683594 191.347656 158.242188 194.277344 C 159.632812 201.382812 160.335938 208.761719 160.335938 216.207031 C 160.335938 224.402344 159.492188 232.453125 157.824219 240.21875 C 148.488281 232.984375 140.648438 222.394531 134.976562 209.304688 Z M 187.398438 317.066406 C 172.847656 317.066406 158.832031 307.613281 147.738281 290.382812 C 153.980469 279.617188 158.980469 266.734375 162.371094 252.726562 C 170.3125 258.085938 178.707031 260.792969 187.398438 260.792969 C 196.089844 260.792969 204.484375 258.085938 212.417969 252.730469 C 215.8125 266.757812 220.8125 279.640625 227.046875 290.382812 C 215.957031 307.613281 201.941406 317.066406 187.398438 317.066406 Z M 245.722656 190.265625 C 245.652344 190.539062 245.613281 190.824219 245.605469 191.105469 C 244.210938 197.484375 242.238281 203.652344 239.746094 209.460938 C 234.203125 222.421875 226.382812 232.957031 216.960938 240.230469 C 215.292969 232.460938 214.449219 224.40625 214.449219 216.210938 C 214.449219 209.011719 215.109375 201.855469 216.414062 194.9375 C 217.015625 191.742188 217.75 188.628906 218.589844 185.660156 C 221.941406 173.738281 227.316406 162.847656 234.144531 154.167969 C 237.667969 149.667969 241.546875 145.773438 245.71875 142.546875 C 247.386719 150.3125 248.230469 158.367188 248.230469 166.5625 C 248.230469 180.316406 245.75 190.167969 245.722656 190.265625 Z M 245.722656 190.265625 " fill-opacity="1" fill-rule="nonzero"/></g><g clip-path="url(#487b881e3b)"><path fill="#ffffff" d="M 145.65625 74.628906 C 161.515625 78.457031 175.304688 87.1875 184.484375 99.207031 C 185.179688 100.117188 186.261719 100.648438 187.40625 100.648438 C 188.554688 100.648438 189.632812 100.113281 190.328125 99.203125 C 199.496094 87.183594 213.28125 78.460938 229.144531 74.640625 C 230.40625 74.335938 231.414062 73.386719 231.796875 72.144531 C 232.175781 70.902344 231.871094 69.550781 230.996094 68.585938 C 220.296875 56.855469 204.410156 50.128906 187.40625 50.128906 C 170.402344 50.128906 154.507812 56.851562 143.804688 68.574219 C 142.925781 69.535156 142.625 70.886719 143.003906 72.132812 C 143.382812 73.375 144.390625 74.324219 145.65625 74.628906 Z M 187.40625 57.480469 C 200.121094 57.480469 212.089844 61.722656 221.109375 69.273438 C 207.816406 73.617188 196.125 81.203125 187.40625 91.167969 C 178.675781 81.207031 166.980469 73.617188 153.6875 69.269531 C 162.714844 61.71875 174.6875 57.480469 187.40625 57.480469 Z M 187.40625 57.480469 " fill-opacity="1" fill-rule="nonzero"/></g><g clip-path="url(#9f1bbe69ff)"><path fill="#ffffff" d="M 257.058594 79.398438 C 250.011719 79.566406 243.054688 80.597656 236.382812 82.460938 C 236.382812 82.460938 236.378906 82.460938 236.378906 82.464844 C 228.605469 84.625 221.3125 87.878906 214.703125 92.117188 C 211.3125 94.28125 208.085938 96.738281 205.117188 99.414062 C 203.042969 101.273438 201.078125 103.257812 199.269531 105.3125 C 198.789062 105.855469 198.320312 106.410156 197.859375 106.96875 C 197.710938 107.148438 197.570312 107.328125 197.425781 107.507812 C 197.117188 107.890625 196.808594 108.273438 196.511719 108.660156 C 196.339844 108.882812 196.175781 109.101562 196.011719 109.324219 C 195.746094 109.675781 195.480469 110.027344 195.222656 110.386719 C 195.046875 110.625 194.878906 110.871094 194.710938 111.113281 C 194.542969 111.351562 194.367188 111.589844 194.203125 111.832031 C 194.191406 111.84375 194.179688 111.859375 194.167969 111.871094 C 194 112.035156 193.84375 112.210938 193.707031 112.410156 C 193.535156 112.65625 193.398438 112.921875 193.292969 113.199219 C 193.292969 113.203125 193.289062 113.207031 193.285156 113.210938 C 193 113.65625 192.710938 114.125 192.414062 114.621094 C 192.394531 114.65625 192.371094 114.6875 192.351562 114.722656 C 192.34375 114.734375 192.339844 114.746094 192.332031 114.753906 C 192.332031 114.757812 192.332031 114.757812 192.332031 114.757812 C 192.332031 114.757812 192.332031 114.757812 192.332031 114.761719 C 190.171875 118.304688 188.382812 122.023438 186.980469 125.851562 C 185.621094 122.148438 183.890625 118.542969 181.785156 115.054688 C 181.480469 114.535156 181.164062 114.023438 180.886719 113.597656 C 180.730469 113.34375 180.570312 113.097656 180.40625 112.847656 L 180.25 112.609375 C 180.191406 112.519531 180.128906 112.433594 180.0625 112.347656 C 178.582031 110.136719 176.980469 108.03125 175.324219 106.105469 C 173.234375 103.640625 170.878906 101.246094 168.328125 98.988281 C 165.597656 96.566406 162.550781 94.265625 159.273438 92.144531 C 159.269531 92.144531 159.269531 92.140625 159.269531 92.140625 C 159.265625 92.140625 159.261719 92.136719 159.257812 92.132812 C 152.871094 88.042969 145.847656 84.867188 138.382812 82.703125 C 131.707031 80.769531 124.773438 79.667969 117.777344 79.433594 C 115.722656 79.367188 114.046875 80.957031 113.980469 82.988281 C 113.910156 85.019531 115.5 86.71875 117.527344 86.785156 C 122.671875 86.957031 127.769531 87.648438 132.738281 88.828125 C 131.828125 92.40625 131.363281 96.082031 131.363281 99.804688 C 131.363281 110.207031 134.949219 120.171875 141.730469 128.625 C 149.972656 138.871094 162.125 145.914062 175.9375 148.449219 C 179.480469 149.105469 183.171875 149.457031 186.910156 149.492188 C 186.921875 149.492188 186.933594 149.492188 186.945312 149.492188 C 186.949219 149.492188 186.953125 149.488281 186.957031 149.488281 C 186.960938 149.488281 186.964844 149.492188 186.96875 149.492188 L 187.402344 149.492188 C 191.253906 149.492188 195.105469 149.140625 198.847656 148.449219 C 212.679688 145.910156 224.832031 138.871094 233.066406 128.625 C 239.84375 120.171875 243.429688 110.207031 243.429688 99.804688 C 243.429688 96.027344 242.949219 92.285156 242.003906 88.632812 C 246.960938 87.511719 252.066406 86.875 257.230469 86.753906 C 259.257812 86.703125 260.863281 85.019531 260.816406 82.988281 C 260.773438 80.957031 259.101562 79.390625 257.058594 79.398438 Z M 200.347656 115.882812 C 200.980469 114.960938 201.640625 114.046875 202.335938 113.152344 C 202.394531 113.074219 202.460938 112.996094 202.519531 112.917969 C 202.832031 112.519531 203.167969 112.140625 203.488281 111.746094 C 204.71875 113.109375 206.605469 113.996094 208.738281 114.027344 C 212.503906 114.082031 215.601562 111.445312 215.664062 108.136719 C 215.707031 105.917969 214.371094 103.96875 212.351562 102.902344 C 212.402344 102.863281 212.449219 102.824219 212.5 102.785156 C 212.949219 102.417969 213.40625 102.054688 213.871094 101.695312 C 214.097656 101.519531 214.324219 101.34375 214.554688 101.171875 C 215.019531 100.824219 215.492188 100.480469 215.96875 100.140625 C 216.175781 99.996094 216.382812 99.84375 216.59375 99.695312 C 216.679688 99.636719 216.765625 99.585938 216.855469 99.523438 C 219.960938 101.601562 221.789062 104.792969 221.734375 108.203125 C 221.613281 114.207031 215.777344 119.027344 208.628906 118.90625 C 205.449219 118.863281 202.496094 117.859375 200.203125 116.09375 C 200.25 116.023438 200.300781 115.953125 200.347656 115.882812 Z M 157.199219 99.609375 C 157.246094 99.640625 157.296875 99.675781 157.347656 99.707031 C 157.511719 99.824219 157.671875 99.9375 157.832031 100.054688 C 158.320312 100.398438 158.800781 100.746094 159.273438 101.101562 C 159.480469 101.257812 159.6875 101.414062 159.894531 101.570312 C 160.332031 101.90625 160.757812 102.242188 161.179688 102.582031 C 161.332031 102.707031 161.488281 102.828125 161.640625 102.953125 C 160.003906 104.046875 158.9375 105.769531 158.9375 107.71875 C 158.9375 111.027344 162 113.71875 165.765625 113.71875 C 167.65625 113.71875 169.347656 113.023438 170.582031 111.929688 C 171.027344 112.472656 171.476562 113.007812 171.90625 113.574219 C 172.136719 113.878906 172.355469 114.199219 172.582031 114.511719 C 172.988281 115.074219 173.398438 115.636719 173.792969 116.214844 C 171.539062 117.746094 168.734375 118.585938 165.765625 118.585938 C 158.664062 118.585938 152.882812 113.710938 152.882812 107.714844 C 152.882812 104.574219 154.464844 101.65625 157.199219 99.609375 Z M 177.273438 141.214844 C 165.183594 138.996094 154.597656 132.886719 147.460938 124.019531 C 141.742188 116.886719 138.71875 108.515625 138.71875 99.804688 C 138.71875 96.773438 139.082031 93.78125 139.804688 90.863281 C 143.574219 92.160156 147.191406 93.761719 150.644531 95.621094 C 147.410156 98.910156 145.53125 103.210938 145.53125 107.71875 C 145.53125 117.769531 154.609375 125.945312 165.765625 125.945312 C 170.042969 125.945312 174.121094 124.726562 177.511719 122.542969 C 180.628906 128.710938 182.511719 135.214844 183.085938 141.96875 C 181.109375 141.820312 179.167969 141.566406 177.273438 141.214844 Z M 227.335938 124.019531 C 220.210938 132.886719 209.621094 138.996094 197.523438 141.21875 C 195.324219 141.625 193.085938 141.894531 190.828125 142.035156 C 191.398438 135.242188 193.300781 128.695312 196.464844 122.464844 C 199.882812 124.851562 204.074219 126.203125 208.523438 126.265625 C 208.632812 126.265625 208.742188 126.265625 208.847656 126.265625 C 219.835938 126.265625 228.882812 118.289062 229.082031 108.351562 C 229.082031 108.347656 229.082031 108.34375 229.082031 108.34375 C 229.167969 103.445312 227.121094 98.871094 223.523438 95.476562 C 227.148438 93.542969 230.957031 91.90625 234.925781 90.59375 C 235.695312 93.609375 236.082031 96.695312 236.082031 99.804688 C 236.082031 108.511719 233.054688 116.886719 227.335938 124.019531 Z M 227.335938 124.019531 " fill-opacity="1" fill-rule="nonzero"/></g></svg>