<?xml version="1.0" encoding="UTF-8" standalone="no"?>
<svg
   width="43"
   height="43"
   fill="none"
   viewBox="0 0 43 43"
   version="1.1"
   id="svg6"
   sodipodi:docname="logoWithoutText.svg"
   xml:space="preserve"
   inkscape:version="1.2.2 (b0a8486, 2022-12-01)"
   xmlns:inkscape="http://www.inkscape.org/namespaces/inkscape"
   xmlns:sodipodi="http://sodipodi.sourceforge.net/DTD/sodipodi-0.dtd"
   xmlns="http://www.w3.org/2000/svg"
   xmlns:svg="http://www.w3.org/2000/svg"><defs
     id="defs10"><clipPath
       id="4a3c454f3e"><path
         d="M 119 132 L 256 132 L 256 324.625 L 119 324.625 Z M 119 132 "
         clip-rule="nonzero"
         id="path1936" /></clipPath><clipPath
       id="b1745d3570"><path
         d="M 142 50.125 L 232 50.125 L 232 101 L 142 101 Z M 142 50.125 "
         clip-rule="nonzero"
         id="path1939" /></clipPath><clipPath
       id="0b590bef5c"><path
         d="M 113.890625 79 L 260.890625 79 L 260.890625 150 L 113.890625 150 Z M 113.890625 79 "
         clip-rule="nonzero"
         id="path1942" /></clipPath></defs><sodipodi:namedview
     id="namedview8"
     pagecolor="#ffffff"
     bordercolor="#000000"
     borderopacity="0.25"
     inkscape:showpageshadow="2"
     inkscape:pageopacity="0.0"
     inkscape:pagecheckerboard="0"
     inkscape:deskcolor="#d1d1d1"
     showgrid="false"
     inkscape:zoom="18.232558"
     inkscape:cx="14.507015"
     inkscape:cy="19.909439"
     inkscape:window-width="1916"
     inkscape:window-height="934"
     inkscape:window-x="0"
     inkscape:window-y="25"
     inkscape:window-maximized="0"
     inkscape:current-layer="svg6" /><g
     id="g1975"
     transform="matrix(0.16161037,0,0,0.11269672,-7.9353047,2.056047)"><g
       clip-path="url(#4a3c454f3e)"
       id="g1949"><path
         fill="#bf8c95"
         d="m 249.30078,132.88281 c -1.05859,-0.43359 -2.25,-0.32422 -3.21875,0.29688 -6.46094,4.13672 -12.36328,9.58593 -17.53906,16.19922 -7.4375,9.44921 -13.28125,21.26171 -16.89844,34.14453 -0.90234,3.17968 -1.6875,6.52734 -2.33594,9.94922 -1.39453,7.40234 -2.10156,15.05078 -2.10156,22.73828 0,9.80468 1.14844,19.42968 3.38672,28.65625 -7.38281,5.55078 -15.17578,8.36718 -23.19531,8.36718 -8.01563,0 -15.8125,-2.8164 -23.20313,-8.36718 2.23828,-9.22657 3.38281,-18.84766 3.38281,-28.65625 0,-7.95703 -0.75,-15.84375 -2.23437,-23.42969 -0.60547,-3.14453 -1.34766,-6.26172 -2.19922,-9.24609 -3.61328,-12.8711 -9.45703,-24.6836 -16.89453,-34.15235 -5.19922,-6.63672 -11.09766,-12.08594 -17.53906,-16.1914 -0.96485,-0.61719 -2.15625,-0.72266 -3.21485,-0.28907 -1.05468,0.4336 -1.85546,1.35938 -2.15625,2.5 -2.66406,9.98438 -4.01562,20.46875 -4.01562,31.16407 0,22.40234 5.16797,36.89843 9.05469,45.85546 6.67187,15.39063 16.18359,27.67188 27.60937,35.69532 -3.40625,15.22656 -8.77344,29.10937 -15.59375,40.28906 -0.75781,1.23828 -0.75781,2.82031 0,4.05859 12.65234,20.73828 29.34766,32.16016 47.00781,32.16016 17.65235,0 34.33985,-11.42188 46.99219,-32.16016 0.75781,-1.23828 0.75781,-2.82422 0,-4.0625 -6.81641,-11.14843 -12.18359,-25.03125 -15.59375,-40.28125 11.53906,-8.07812 21.03516,-20.32031 27.55859,-35.57422 2.75782,-6.42578 4.92188,-13.26562 6.42969,-20.32812 0.043,-0.20313 0.0703,-0.41016 0.082,-0.61328 0.58203,-2.49219 2.60547,-12.08203 2.60547,-25.03906 0,-10.70313 -1.35156,-21.19141 -4.01172,-31.17579 -0.30859,-1.14453 -1.10937,-2.07421 -2.16406,-2.50781 z m -114.32422,76.42188 c -3.60937,-8.32032 -8.41015,-21.80078 -8.41015,-42.74219 0,-8.1875 0.84375,-16.24219 2.51171,-24.00391 4.15625,3.21094 8.03125,7.10157 11.56641,11.61328 6.83203,8.69532 12.20703,19.58204 15.55469,31.50391 0.79687,2.78125 1.48437,5.67188 2.04297,8.60156 1.39062,7.10547 2.09375,14.48438 2.09375,21.92969 0,8.19531 -0.84375,16.24609 -2.51172,24.01172 -9.33594,-7.23438 -17.17578,-17.82422 -22.84766,-30.91406 z m 52.42188,107.76172 c -14.55078,0 -28.56641,-9.45313 -39.66016,-26.6836 6.24219,-10.76562 11.24219,-23.64844 14.63281,-37.65625 7.94141,5.35938 16.33594,8.06641 25.02735,8.06641 8.6914,0 17.08593,-2.70703 25.01953,-8.0625 3.39453,14.02734 8.39453,26.91015 14.6289,37.65234 -11.08984,17.23047 -25.10546,26.6836 -39.64843,26.6836 z m 58.32422,-126.80079 c -0.0703,0.27344 -0.10938,0.5586 -0.11719,0.83985 -1.39453,6.3789 -3.36719,12.54687 -5.85938,18.35547 -5.54297,12.96093 -13.36328,23.49609 -22.78515,30.76953 -1.66797,-7.76953 -2.51172,-15.82422 -2.51172,-24.01953 0,-7.19922 0.66015,-14.35547 1.96484,-21.27344 0.60156,-3.19531 1.33594,-6.30859 2.17578,-9.27734 3.35157,-11.92188 8.72657,-22.8125 15.55469,-31.49219 3.52344,-4.5 7.40234,-8.39453 11.57422,-11.6211 1.66797,7.76563 2.51172,15.82032 2.51172,24.01563 0,13.75391 -2.48047,23.60547 -2.50781,23.70312 z m 0,0"
         fill-opacity="1"
         fill-rule="nonzero"
         id="path1947" /></g><g
       clip-path="url(#b1745d3570)"
       id="g1953"><path
         fill="#bf8c95"
         d="m 145.65625,74.628906 c 15.85937,3.828125 29.64844,12.558594 38.82812,24.578125 0.69532,0.910159 1.77735,1.441409 2.92188,1.441409 1.14844,0 2.22656,-0.53516 2.92187,-1.445315 9.16797,-12.019531 22.95313,-20.742187 38.81641,-24.5625 1.26172,-0.304687 2.26953,-1.253906 2.65234,-2.496094 0.37891,-1.242187 0.0742,-2.59375 -0.80078,-3.558593 -10.69922,-11.730469 -26.58593,-18.457032 -43.58984,-18.457032 -17.00391,0 -32.89844,6.722656 -43.60156,18.445313 -0.87891,0.960937 -1.17969,2.3125 -0.80078,3.558593 0.3789,1.242188 1.38671,2.191407 2.65234,2.496094 z m 41.75,-17.148437 c 12.71484,0 24.68359,4.242187 33.70312,11.792969 -13.29296,4.34375 -24.98437,11.929687 -33.70312,21.894531 -8.73047,-9.960938 -20.42578,-17.550781 -33.71875,-21.898438 9.02734,-7.550781 21,-11.789062 33.71875,-11.789062 z m 0,0"
         fill-opacity="1"
         fill-rule="nonzero"
         id="path1951" /></g><g
       clip-path="url(#0b590bef5c)"
       id="g1957"><path
         fill="#bf8c95"
         d="m 257.05859,79.398438 c -7.04687,0.167968 -14.0039,1.199218 -20.67578,3.0625 0,0 -0.004,0 -0.004,0.0039 -7.77344,2.160156 -15.06641,5.414062 -21.67579,9.652344 -3.39062,2.164062 -6.61718,4.621093 -9.58593,7.296874 -2.07422,1.859374 -4.03907,3.843744 -5.84766,5.898434 -0.48047,0.54297 -0.94922,1.09766 -1.41016,1.65625 -0.14843,0.17969 -0.28906,0.35938 -0.43359,0.53906 -0.30859,0.38282 -0.61719,0.76563 -0.91406,1.15235 -0.17188,0.22265 -0.33594,0.4414 -0.5,0.66406 -0.26563,0.35156 -0.53125,0.70312 -0.78906,1.0625 -0.17579,0.23828 -0.34375,0.48437 -0.51172,0.72656 -0.16797,0.23828 -0.34375,0.47656 -0.50782,0.71875 -0.0117,0.0117 -0.0234,0.0273 -0.0352,0.0391 -0.16797,0.16407 -0.32422,0.33985 -0.46094,0.53907 -0.17187,0.24609 -0.30859,0.51172 -0.41406,0.78906 0,0.004 -0.004,0.008 -0.008,0.0117 -0.28516,0.44531 -0.57422,0.91406 -0.8711,1.41015 -0.0195,0.0352 -0.043,0.0664 -0.0625,0.10157 -0.008,0.0117 -0.0117,0.0234 -0.0195,0.0312 0,0.004 0,0.004 0,0.004 0,0 0,0 0,0.004 -2.16016,3.54297 -3.94922,7.26172 -5.35156,11.08984 -1.35938,-3.70312 -3.08985,-7.30859 -5.19531,-10.79687 -0.30469,-0.51953 -0.6211,-1.03125 -0.89844,-1.45703 -0.15625,-0.25391 -0.31641,-0.5 -0.48047,-0.75 L 180.25,112.60938 c -0.0586,-0.0898 -0.12109,-0.17579 -0.1875,-0.26172 -1.48047,-2.21094 -3.08203,-4.31641 -4.73828,-6.24219 -2.08985,-2.46484 -4.44531,-4.85938 -6.9961,-7.117189 -2.73046,-2.421875 -5.77734,-4.722656 -9.05468,-6.84375 -0.004,0 -0.004,-0.0039 -0.004,-0.0039 -0.004,0 -0.008,-0.0039 -0.0117,-0.0078 -6.38672,-4.089843 -13.41015,-7.265624 -20.875,-9.429687 -6.67578,-1.933594 -13.60937,-3.035156 -20.60547,-3.269531 -2.05468,-0.06641 -3.73046,1.523437 -3.79687,3.554687 -0.0703,2.03125 1.51953,3.730469 3.54687,3.796875 5.14454,0.171875 10.24219,0.863282 15.21094,2.042969 -0.91016,3.578125 -1.375,7.253906 -1.375,10.976563 0,10.402343 3.58594,20.367193 10.36719,28.820313 8.24219,10.24609 20.39453,17.28906 34.20703,19.82422 3.54297,0.65625 7.23437,1.00781 10.97266,1.04297 0.0117,0 0.0234,0 0.0352,0 0.004,0 0.008,-0.004 0.0117,-0.004 0.004,0 0.008,0.004 0.0117,0.004 h 0.43359 c 3.85157,0 7.70313,-0.35157 11.44532,-1.04297 13.83203,-2.53906 25.98437,-9.57813 34.21875,-19.82422 6.77734,-8.45312 10.36328,-18.41797 10.36328,-28.820313 0,-3.777344 -0.48047,-7.519532 -1.42578,-11.171876 4.95703,-1.121093 10.0625,-1.757812 15.22656,-1.878906 2.02734,-0.05078 3.63281,-1.734375 3.58594,-3.765625 -0.043,-2.03125 -1.71485,-3.597656 -3.75782,-3.589843 z m -56.71093,36.484372 c 0.63281,-0.92187 1.29296,-1.83593 1.98828,-2.73047 0.0586,-0.0781 0.125,-0.15625 0.18359,-0.23437 0.3125,-0.39844 0.64844,-0.77734 0.96875,-1.17188 1.23047,1.36329 3.11719,2.25 5.25,2.28125 3.76563,0.0547 6.86328,-2.58203 6.92578,-5.89062 0.043,-2.21875 -1.29297,-4.16797 -3.3125,-5.23438 0.0508,-0.0391 0.0977,-0.0781 0.14844,-0.11718 0.44922,-0.36719 0.90625,-0.73047 1.37109,-1.08985 0.22657,-0.17578 0.45313,-0.35156 0.6836,-0.52343 0.46484,-0.34766 0.9375,-0.69141 1.41406,-1.03125 0.20703,-0.144536 0.41406,-0.29688 0.625,-0.445318 0.0859,-0.05859 0.17187,-0.109374 0.26172,-0.171874 3.10547,2.078122 4.93359,5.269532 4.8789,8.679692 -0.12109,6.0039 -5.95703,10.82421 -13.10546,10.70312 -3.17969,-0.043 -6.13282,-1.04687 -8.42579,-2.8125 0.0469,-0.0703 0.0977,-0.14062 0.14454,-0.21094 z M 157.19922,99.609375 c 0.0469,0.03125 0.0977,0.06641 0.14844,0.09766 0.16406,0.117188 0.32421,0.230469 0.48437,0.347655 0.48828,0.34375 0.96875,0.6914 1.44141,1.04687 0.20703,0.15625 0.41406,0.3125 0.62109,0.46875 0.4375,0.33594 0.86328,0.67188 1.28516,1.01172 0.15234,0.125 0.30859,0.2461 0.46093,0.3711 -1.63671,1.09375 -2.70312,2.8164 -2.70312,4.76562 0,3.30859 3.0625,6 6.82812,6 1.89063,0 3.58204,-0.69531 4.81641,-1.78906 0.44531,0.54297 0.89453,1.07812 1.32422,1.64453 0.23047,0.30469 0.44922,0.625 0.67578,0.9375 0.40625,0.5625 0.81641,1.125 1.21094,1.70312 -2.25391,1.53125 -5.0586,2.3711 -8.02735,2.3711 -7.10156,0 -12.88281,-4.875 -12.88281,-10.8711 0,-3.14062 1.58203,-6.05859 4.31641,-8.105461 z m 20.07422,41.605465 c -12.08985,-2.21875 -22.67578,-8.32812 -29.8125,-17.19531 -5.71875,-7.13281 -8.74219,-15.5039 -8.74219,-24.214842 0,-3.03125 0.36328,-6.023438 1.08594,-8.941407 3.76953,1.296875 7.38672,2.898438 10.83984,4.757813 -3.23437,3.289062 -5.11328,7.589846 -5.11328,12.097656 0,10.05078 9.07812,18.22656 20.23437,18.22656 4.27735,0 8.35547,-1.21875 11.7461,-3.40234 3.11719,6.16797 5,12.67187 5.57422,19.42578 -1.97657,-0.14844 -3.91797,-0.40234 -5.8125,-0.75391 z m 50.0625,-17.19531 c -7.125,8.86719 -17.71485,14.97656 -29.8125,17.19922 -2.19922,0.40625 -4.4375,0.67578 -6.69532,0.81641 0.57032,-6.79297 2.47266,-13.33985 5.63672,-19.57032 3.41797,2.38672 7.60938,3.73829 12.0586,3.80079 0.10937,0 0.21875,0 0.32422,0 10.98828,0 20.03515,-7.97657 20.23437,-17.91407 0,-0.004 0,-0.008 0,-0.008 0.0859,-4.89844 -1.96094,-9.472656 -5.55859,-12.867188 3.625,-1.933593 7.43359,-3.570312 11.40234,-4.882812 0.76953,3.015625 1.15625,6.101562 1.15625,9.210938 0,8.707032 -3.02734,17.082032 -8.74609,24.214842 z m 0,0"
         fill-opacity="1"
         fill-rule="nonzero"
         id="path1955" /></g></g></svg>
